<?xml version="1.0" encoding="UTF-8" standalone="no"?>
<svg
   xmlns:dc="http://purl.org/dc/elements/1.1/"
   xmlns:cc="http://creativecommons.org/ns#"
   xmlns:rdf="http://www.w3.org/1999/02/22-rdf-syntax-ns#"
   xmlns:svg="http://www.w3.org/2000/svg"
   xmlns="http://www.w3.org/2000/svg"
   xmlns:sodipodi="http://sodipodi.sourceforge.net/DTD/sodipodi-0.dtd"
   xmlns:inkscape="http://www.inkscape.org/namespaces/inkscape"
   id="Layer_1"
   data-name="Layer 1"
   viewBox="0 0 1190.551 841.89"
   version="1.1"
   sodipodi:docname="echoCTF-RED.svg"
   inkscape:version="0.92.5 (2060ec1f9f, 2020-04-08)">
  <metadata
     id="metadata23">
    <rdf:RDF>
      <cc:Work
         rdf:about="">
        <dc:format>image/svg+xml</dc:format>
        <dc:type
           rdf:resource="http://purl.org/dc/dcmitype/StillImage" />
        <dc:title></dc:title>
      </cc:Work>
    </rdf:RDF>
  </metadata>
  <sodipodi:namedview
     pagecolor="#ffffff"
     bordercolor="#666666"
     borderopacity="1"
     objecttolerance="10"
     gridtolerance="10"
     guidetolerance="10"
     inkscape:pageopacity="0"
     inkscape:pageshadow="2"
     inkscape:window-width="1920"
     inkscape:window-height="1056"
     id="namedview21"
     showgrid="false"
     inkscape:zoom="0.93402129"
     inkscape:cx="623.06341"
     inkscape:cy="442.27307"
     inkscape:window-x="1920"
     inkscape:window-y="0"
     inkscape:window-maximized="1"
     inkscape:current-layer="Layer_1" />
  <defs
     id="defs4">
    <style
       id="style2">.cls-1{fill:#95c11f;}.cls-2{fill:#1e1f1f;}</style>
  </defs>
  <g
     id="g32"
     transform="matrix(1.0389261,0,0,1.0389261,-46.794407,-37.166379)">
    <path
       id="path6"
       d="m 190.494,436.109 24.423,20.431 q -18.791,23.723 -51.9,23.719 -27.009,0 -44.033,-17.026 -17.024,-17.026 -17.026,-45.676 0,-27.24 16.791,-45.089 16.791,-17.849 43.328,-17.848 19.727,0 33.347,9.863 a 54.777,54.777 0 0 1 19.376,24.306 84.618,84.618 0 0 1 5.754,31.586 q 0,4.932 -0.235,8.689 H 144.23 q 1.409,19.726 21.136,19.727 15.5,0 25.128,-12.682 z m -46.733,-28.885 h 35.93 q -1.645,-21.84 -18.083,-21.84 -15.735,0 -17.847,21.84 z"
       class="cls-1"
       inkscape:connector-curvature="0"
       style="fill:#95c11f" />
    <path
       id="path8"
       d="m 308.379,433.526 28.65,22.075 q -19.259,24.659 -51.9,24.658 -27.949,0 -45.442,-17.5 -17.493,-17.5 -17.495,-45.442 0,-27.707 17.613,-45.206 17.613,-17.499 45.794,-17.5 33.111,0 50.49,23.719 l -28.885,22.309 q -8.928,-10.8 -20.9,-10.8 -10.567,0 -16.908,7.4 -6.341,7.4 -6.341,20.079 0,12.681 6.458,19.961 6.458,7.28 17.261,7.28 12.209,0.004 21.605,-11.033 z"
       class="cls-1"
       inkscape:connector-curvature="0"
       style="fill:#95c11f" />
    <path
       id="path10"
       d="m 340.316,477.676 v -176.13 h 41.1 v 67.164 h 0.47 q 12.681,-14.089 32.642,-14.09 17.613,0 29.473,11.977 11.86,11.977 11.859,34.051 v 77.028 h -41.1 v -67.164 q 0,-9.863 -4.814,-15.265 a 15.274,15.274 0 0 0 -11.86,-5.4 15.074,15.074 0 0 0 -12.094,5.4 q -4.579,5.406 -4.579,15.734 v 66.695 z"
       class="cls-1"
       inkscape:connector-curvature="0"
       style="fill:#95c11f" />
    <path
       id="path12"
       d="m 573.039,462.646 q -18.555,17.613 -47.2,17.613 -28.645,0 -46.967,-17.613 -18.318,-17.613 -18.318,-45.324 0,-27.476 18.552,-45.089 18.552,-17.613 47.2,-17.613 28.648,0 46.968,17.613 18.32,17.613 18.317,45.089 0,27.714 -18.552,45.324 z M 508.576,436.7 q 6.693,7.87 17.73,7.867 11.037,-0.003 17.378,-7.631 6.341,-7.629 6.341,-19.61 0,-11.5 -6.576,-19.491 -6.576,-7.991 -17.613,-7.985 -11.04,0 -17.5,7.75 -6.46,7.75 -6.458,19.726 0.005,11.506 6.698,19.374 z"
       class="cls-1"
       inkscape:connector-curvature="0"
       style="fill:#95c11f" />
    <path
       style="fill:#ff0000"
       id="path14"
       d="m 932.008,361.227 a 19.314,19.314 0 0 0 -0.137,-2.744 18.4,18.4 0 0 0 -14.65,-14.992 c -1.443,-0.217 -2.87,-0.537 -4.3,-0.808 -6.275,-1.183 -12.548,-2.38 -18.826,-3.544 -6.278,-1.164 -12.57,-2.286 -18.85,-3.45 -6.28,-1.164 -12.556,-2.367 -18.837,-3.532 -5.624,-1.044 -11.256,-2.05 -16.881,-3.093 -6.284,-1.164 -12.562,-2.354 -18.844,-3.526 -5.685,-1.059 -11.37,-2.125 -17.059,-3.157 a 30.242,30.242 0 0 0 -16.077,0.945 c -7.5,2.74 -11.016,7.759 -11.016,15.667 v 79.139 q 0,39.661 0,79.323 c 0,0.673 0.007,1.346 0.011,2.019 a 12.6,12.6 0 0 0 3.129,8.223 17.785,17.785 0 0 0 6.862,4.755 c 5.658,2.4 11.523,2.4 17.454,1.314 6.362,-1.168 12.72,-2.368 19.085,-3.518 5.281,-0.955 10.591,-1.747 15.865,-2.763 7.607,-1.465 15.238,-2.813 22.857,-4.222 7.619,-1.409 15.229,-2.839 22.846,-4.247 7.617,-1.408 15.237,-2.786 22.852,-4.2 3.773,-0.7 7.592,-1.253 11.293,-2.236 a 18.384,18.384 0 0 0 13.28,-17.323 c -0.109,-38.012 -0.051,-76.021 -0.057,-114.03 z m -20.952,25.629 c -1.948,-0.165 -3.9,-0.29 -5.85,-0.44 q -6.671,-0.515 -13.34,-1.04 -5.847,-0.468 -11.69,-0.976 c -1.334,-0.115 -1.345,-0.131 -1.38,1.171 -0.01,0.367 0,0.734 0,1.1 v 83.574 l -22.621,2.659 a 4.044,4.044 0 0 1 -0.215,-2.091 q -0.015,-42.683 -0.008,-85.364 v -0.367 c 0,-2.537 0,-2.482 -2.471,-2.66 -3.9,-0.281 -7.793,-0.658 -11.69,-0.97 -3.656,-0.292 -7.314,-0.543 -10.969,-0.825 -4.325,-0.332 -8.65,-0.665 -12.973,-1.025 a 40.029,40.029 0 0 1 -4.573,-0.319 c -0.623,-0.124 -0.947,-0.275 -0.944,-1.009 0.032,-6.915 0.025,-13.83 0.038,-20.744 0,-0.11 0.094,-0.219 0.161,-0.369 a 15.427,15.427 0 0 1 3.962,0.369 c 6.541,0.736 13.064,1.627 19.6,2.422 4.6,0.559 9.21,1.023 13.81,1.579 5.564,0.674 11.12,1.424 16.685,2.1 4.6,0.556 9.207,1.02 13.805,1.577 5.5,0.666 11,1.406 16.5,2.079 3.569,0.437 7.146,0.8 10.716,1.222 1.15,0.136 2.286,0.364 3.452,0.389 0.706,0.015 1.069,0.371 1.065,1.165 q -0.038,7.893 0,15.787 c 10e-4,0.82 -0.295,1.072 -1.07,1.006 z"
       class="cls-2"
       inkscape:connector-curvature="0" />
    <path
       style="fill:#ff0000"
       id="path16"
       d="m 1096,338.033 a 14.22,14.22 0 0 0 -6.668,-12.52 c -4.578,-3.1 -9.749,-4.032 -15.177,-3.835 a 46.121,46.121 0 0 0 -6.7,0.891 c -5.747,1.063 -11.507,2.056 -17.259,3.1 -5.752,1.044 -11.492,2.117 -17.242,3.154 -5.75,1.037 -11.508,2.033 -17.258,3.074 -5.75,1.041 -11.486,2.13 -17.234,3.167 -6.407,1.156 -12.822,2.264 -19.229,3.416 -7.962,1.432 -15.932,2.825 -23.877,4.349 -8.75,1.68 -14.892,9.6 -14.883,17.369 q 0.061,58.111 0.024,116.223 a 11.154,11.154 0 0 0 0.1,2.013 c 1.424,7.7 5.986,12.635 13.405,14.928 a 69.535,69.535 0 0 0 8.251,1.591 q 10.893,1.962 21.784,3.934 10.534,1.9 21.072,3.8 c 7.2,1.3 14.4,2.636 21.612,3.9 6.01,1.051 12,2.179 18.037,3.115 8.982,1.393 17.873,3.351 26.869,4.688 a 25.793,25.793 0 0 0 14.682,-1.926 c 3.446,-1.558 6.462,-3.676 8.24,-7.211 a 15.349,15.349 0 0 0 1.437,-7.105 q -0.028,-39.936 -0.012,-79.87 10e-4,-40.125 0.026,-80.245 z m -42.886,40.443 c 0,0.745 -0.2,1.015 -1,1.149 -2.122,0.36 -4.268,0.3 -6.4,0.52 -4.009,0.414 -8.045,0.566 -12.067,0.867 -4.022,0.301 -8.039,0.662 -12.059,0.975 -3.717,0.289 -7.436,0.546 -11.153,0.826 -4.448,0.336 -8.894,0.692 -13.342,1.02 -2.438,0.18 -4.879,0.327 -7.319,0.473 -1.529,0.091 -1.551,0.078 -1.553,1.52 q -0.012,10.19 0,20.379 c 0,1.252 0.023,1.263 1.318,1.25 9.667,-0.1 19.329,-0.394 28.993,-0.672 7.094,-0.205 14.191,-0.345 21.287,-0.458 3.366,-0.053 6.729,-0.148 10.09,-0.31 1.2,-0.058 1.241,-0.014 1.243,1.162 q 0.02,9.73 0,19.46 c 0,1.291 -0.033,1.29 -1.331,1.263 q -14.4,-0.308 -28.811,-0.609 -15.783,-0.3 -31.566,-0.56 c -1.214,-0.021 -1.226,-0.028 -1.227,1.541 q 0,16.614 0,33.229 v 8.455 c -3.029,-0.328 -5.819,-0.619 -8.606,-0.934 -2.849,-0.321 -5.695,-0.666 -8.543,-1 -0.182,-0.021 -0.369,0 -0.551,-0.018 -2.3,-0.246 -2.3,-0.247 -2.3,-2.609 v -95.462 c 0,-2.4 0.009,-2.322 2.345,-2.567 3.757,-0.393 7.5,-0.909 11.251,-1.352 3.51,-0.414 7.025,-0.789 10.535,-1.2 3.751,-0.443 7.5,-0.924 11.251,-1.368 3.511,-0.414 7.027,-0.788 10.538,-1.2 3.753,-0.443 7.5,-0.918 11.255,-1.364 3.45,-0.41 6.9,-0.793 10.356,-1.2 3.814,-0.45 7.626,-0.922 11.44,-1.37 1.576,-0.185 3.159,-0.3 4.731,-0.507 0.851,-0.112 1.2,0.084 1.194,1.033 q -0.045,9.816 10e-4,19.638 z"
       class="cls-2"
       inkscape:connector-curvature="0" />
    <path
       style="fill:#ff0000"
       id="path18"
       d="m 767.994,338.508 a 17.445,17.445 0 0 0 -0.325,-4.2 c -1.218,-4.955 -4.481,-8.159 -8.945,-10.26 -5.756,-2.71 -11.806,-2.769 -17.92,-1.687 -5.567,0.984 -11.11,2.113 -16.67,3.144 -7.533,1.4 -15.076,2.739 -22.607,4.147 -9.5,1.776 -18.988,3.615 -28.488,5.386 -7.589,1.415 -15.193,2.75 -22.783,4.157 -7.647,1.417 -15.285,2.884 -22.927,4.322 -7.89,1.484 -14.85,8.787 -14.84,17.583 q 0.064,57.111 0.02,114.221 a 16.724,16.724 0 0 0 0.059,1.834 18.432,18.432 0 0 0 14.93,15.792 c 11.782,2.241 23.576,4.415 35.369,6.593 10.238,1.892 20.489,3.709 30.72,5.637 9.271,1.747 18.546,3.473 27.847,5.067 6.419,1.1 12.809,2.378 19.218,3.549 a 32.777,32.777 0 0 0 14.164,-0.236 20.933,20.933 0 0 0 8.7,-4.49 c 3.214,-2.814 4.5,-6.518 4.5,-10.8 q -0.057,-40.033 -0.018,-80.065 0.002,-39.844 -0.004,-79.694 z m -39.055,39.451 c 0,1.5 -0.013,1.464 -1.58,1.59 -5.543,0.441 -11.083,0.928 -16.626,1.361 -3.9,0.306 -7.8,0.533 -11.7,0.833 -3.961,0.3 -7.917,0.666 -11.876,0.983 -3.594,0.287 -7.191,0.542 -10.786,0.82 q -6.49,0.5 -12.978,1.014 c -2.011,0.156 -4.021,0.34 -6.035,0.434 -0.732,0.034 -0.982,0.306 -0.936,0.987 0.025,0.366 0,0.735 0,1.1 v 61.143 c 0,0.245 0,0.49 0,0.735 0.037,1.359 0.041,1.325 1.456,1.43 4.387,0.324 8.772,0.693 13.159,1.015 4.023,0.3 8.05,0.534 12.074,0.831 4.142,0.3 8.283,0.648 12.424,0.98 1.889,0.15 3.78,0.245 5.669,0.4 5.848,0.483 11.706,0.816 17.56,1.224 3.108,0.217 6.213,0.489 9.322,0.695 0.619,0.042 0.9,0.234 0.858,0.865 -0.023,0.305 0,0.613 0,0.918 v 20.356 c -3,-0.34 -5.732,-0.64 -8.459,-0.959 -3.759,-0.441 -7.515,-0.9 -11.272,-1.345 -3.515,-0.418 -7.03,-0.826 -10.545,-1.244 q -5.544,-0.659 -11.089,-1.326 -5.45,-0.652 -10.9,-1.305 -5.364,-0.636 -10.728,-1.262 -5.543,-0.658 -11.083,-1.322 a 52.922,52.922 0 0 1 -6.154,-0.86 15.951,15.951 0 0 1 -11.9,-15.476 q 0.16,-34.885 0,-69.773 a 15.982,15.982 0 0 1 13.845,-15.884 c 4.908,-0.5 9.8,-1.17 14.7,-1.782 4.535,-0.567 9.064,-1.176 13.6,-1.73 3.51,-0.428 7.03,-0.775 10.539,-1.2 4.538,-0.551 9.068,-1.162 13.605,-1.717 3.45,-0.422 6.907,-0.782 10.358,-1.2 3.571,-0.431 7.137,-0.9 10.707,-1.34 1.512,-0.186 3.028,-0.339 4.517,-0.5 0.445,0.44 0.258,0.956 0.259,1.416 q 0.008,9.548 -0.005,19.095 z"
       class="cls-2"
       inkscape:connector-curvature="0" />
  </g>
</svg>
